<?xml version="1.0" standalone="no"?><!-- Generator: Gravit.io --><svg xmlns="http://www.w3.org/2000/svg" xmlns:xlink="http://www.w3.org/1999/xlink" style="isolation:isolate" viewBox="0 0 212.47 212.47" width="212.47" height="212.47"><defs><clipPath id="_clipPath_MTzMAqgawvSKluEVus5SwYUPLWhiXkex"><rect width="212.47" height="212.47"/></clipPath></defs><g clip-path="url(#_clipPath_MTzMAqgawvSKluEVus5SwYUPLWhiXkex)"><path d=" M 206.99 106.235 C 206.99 161.88 161.88 206.99 106.235 206.99 C 50.589 206.99 5.48 161.88 5.48 106.235 C 5.48 50.589 50.589 5.48 106.235 5.48 C 161.88 5.48 206.99 50.589 206.99 106.235 Z " fill-rule="evenodd" fill="rgb(255,255,255)" vector-effect="non-scaling-stroke" stroke-width="2.74" stroke="rgb(255,255,255)" stroke-linejoin="miter" stroke-linecap="butt" stroke-miterlimit="4"/><path d=" M 189.993 105.535 C 190.001 135.464 174.038 163.123 148.12 178.09 C 122.202 193.057 90.267 193.057 64.349 178.09 C 38.431 163.123 22.469 135.464 22.477 105.535 C 22.469 75.606 38.431 47.946 64.349 32.979 C 90.267 18.012 122.202 18.012 148.12 32.979 C 174.038 47.946 190.001 75.606 189.993 105.535 L 189.993 105.535 Z " fill-rule="evenodd" fill="rgb(255,0,0)"/><path d=" M 173.97 109.662 C 173.977 134.601 160.676 157.648 139.08 170.119 C 117.484 182.59 90.874 182.59 69.278 170.119 C 47.682 157.648 34.381 134.601 34.388 109.662 C 34.381 84.724 47.682 61.677 69.278 49.206 C 90.874 36.734 117.484 36.734 139.08 49.206 C 160.676 61.677 173.977 84.724 173.97 109.662 L 173.97 109.662 Z " fill-rule="evenodd" fill="rgb(255,255,255)"/><path d=" M 100.453 126.439 L 100.453 187.196 L 100.453 187.237 L 100.453 187.264 C 100.502 198.852 110.062 208.36 121.657 208.36 C 133.253 208.36 142.813 198.852 142.861 187.264 C 142.862 187.209 142.861 187.2 142.861 187.196 L 142.861 126.439 L 100.453 126.439 Z " fill="rgb(255,255,255)"/><path d=" M 114.203 127.305 L 114.203 188.062 L 114.203 188.076 C 114.203 188.085 114.203 188.094 114.203 188.103 C 114.234 192.198 117.457 195.396 121.564 195.396 C 125.68 195.396 128.908 192.184 128.926 188.076 C 128.926 188.09 128.926 188.1 128.926 188.062 L 128.926 127.305 L 114.203 127.305 Z " fill-rule="evenodd" fill="rgb(0,128,0)"/><path d=" M 54.041 122.122 C 55.03 148.957 77.102 170.415 104.179 170.415 C 131.256 170.415 153.328 148.957 154.317 122.122 L 54.041 122.122 L 54.041 122.122 Z " fill-rule="evenodd" fill="rgb(0,128,0)"/><path d=" M 95.421 97.232 C 95.421 102.177 92.784 106.745 88.502 109.218 C 84.22 111.69 78.944 111.69 74.662 109.218 C 70.38 106.745 67.742 102.177 67.742 97.232 C 67.742 92.288 70.38 87.719 74.662 85.247 C 78.944 82.775 84.22 82.775 88.502 85.247 C 92.784 87.719 95.421 92.288 95.421 97.232 L 95.421 97.232 Z " fill-rule="evenodd" fill="rgb(255,0,0)"/><path d=" M 126.772 89.623 C 119.129 89.623 112.943 95.822 112.943 103.466 C 112.943 103.512 112.943 103.555 112.943 103.601 C 125.111 98.16 125.701 108.191 140.615 103.601 C 140.616 103.555 140.615 103.512 140.615 103.466 C 140.615 95.822 134.416 89.623 126.772 89.623 L 126.772 89.623 Z " fill-rule="evenodd" fill="rgb(0,128,0)"/></g></svg>