<?xml version="1.0" standalone="no"?><!-- Generator: Gravit.io --><svg xmlns="http://www.w3.org/2000/svg" xmlns:xlink="http://www.w3.org/1999/xlink" style="isolation:isolate" viewBox="0 0 80 80" width="80" height="80"><defs><clipPath id="_clipPath_c6ner1ldqO4ooMdTyqizX58RVDgwBp3W"><rect width="80" height="80"/></clipPath></defs><g clip-path="url(#_clipPath_c6ner1ldqO4ooMdTyqizX58RVDgwBp3W)"><path d=" M 59.714 16.213 L 63.191 26.342 L 61.389 29.339 L 64.95 31.467 L 69 43.264 L 63.446 45.159 L 66.757 54.803 L 64.477 58.595 L 55.219 58.595 L 55.219 73.22 C 51.831 74.374 48.199 75 44.421 75 C 44.217 75 44.014 74.998 43.812 74.99 C 37.637 65.787 27.417 59.513 15.693 58.705 C 12.713 53.72 11 47.896 11 41.677 C 11 23.285 25.976 8.353 44.421 8.353 C 45.813 8.353 47.185 8.438 48.533 8.603 L 53.859 5.538 C 54.349 6.385 54.279 7.467 53.753 8.604 L 64.311 5 C 65.052 7.158 63.074 9.857 59.733 11.522 C 62.234 11.439 64.37 12.519 65.017 14.403 L 59.714 16.213 Z " fill="rgb(172,44,50)"/></g></svg>