<?xml version="1.0" standalone="no"?><!-- Generator: Gravit.io --><svg xmlns="http://www.w3.org/2000/svg" xmlns:xlink="http://www.w3.org/1999/xlink" style="isolation:isolate" viewBox="0 0 160 180" width="160" height="180"><defs><clipPath id="_clipPath_pU7appbNEo5D72aVIQpIqZirNpk3AGVL"><rect width="160" height="180"/></clipPath></defs><g clip-path="url(#_clipPath_pU7appbNEo5D72aVIQpIqZirNpk3AGVL)"><g id="Group"><g id="Group"><g id="Brand"><g id="Logotype"><path d=" M 7.553 121.785 L 10.396 121.785 L 10.396 164.035 L 10.396 164.035 Q 10.326 166.668 11.747 168.053 L 11.747 168.053 L 11.747 168.053 Q 13.172 169.441 15.801 169.441 L 15.801 169.441 L 19.715 169.441 L 20.07 171.505 L 20.07 171.505 Q 18.364 172.074 15.092 172.074 L 15.092 172.074 L 15.092 172.074 Q 11.607 172.074 9.58 170.08 L 9.58 170.08 L 9.58 170.08 Q 7.553 168.09 7.553 164.46 L 7.553 164.46 L 7.553 121.785 Z  M 39.561 155.856 L 39.561 155.856 L 21.281 155.856 L 21.281 155.856 Q 21.565 163.681 24.552 166.776 L 24.552 166.776 L 24.552 166.776 Q 27.539 169.87 34.226 169.87 L 34.226 169.87 L 34.226 169.87 Q 40.131 169.87 45.96 169.013 L 45.96 169.013 L 46.318 171.007 L 46.318 171.007 Q 42.05 172.428 33.868 172.428 L 33.868 172.428 L 33.868 172.428 Q 25.549 172.428 21.919 168.267 L 21.919 168.267 L 21.919 168.267 Q 18.294 164.106 18.294 154.291 L 18.294 154.291 L 18.294 154.291 Q 18.294 144.474 21.742 140.457 L 21.742 140.457 L 21.742 140.457 Q 25.191 136.436 33.299 136.436 L 33.299 136.436 L 33.299 136.436 Q 46.887 136.436 47.102 146.538 L 47.102 146.538 L 47.102 146.538 Q 47.241 151.231 45.429 153.541 L 45.429 153.541 L 45.429 153.541 Q 43.615 155.856 39.561 155.856 Z  M 21.281 153.509 L 21.281 153.509 L 39.133 153.509 L 39.133 153.509 Q 44.399 153.509 44.185 146.678 L 44.185 146.678 L 44.185 146.678 Q 44.114 142.698 41.514 140.848 L 41.514 140.848 L 41.514 140.848 Q 38.919 138.998 33.443 138.998 L 33.443 138.998 L 33.443 138.998 Q 26.756 138.998 24.054 142.2 L 24.054 142.2 L 24.054 142.2 Q 21.351 145.401 21.281 153.509 Z  M 50.372 140.065 L 50.372 140.065 L 50.088 137.931 L 50.088 137.931 Q 60.899 136.436 66.446 136.436 L 66.446 136.436 L 66.446 136.436 Q 76.548 136.436 76.548 146.394 L 76.548 146.394 L 76.548 171.575 L 74.413 171.575 L 73.914 165.243 L 73.914 165.243 Q 71.282 167.806 66.836 169.94 L 66.836 169.94 L 66.836 169.94 Q 62.391 172.074 57.983 172.074 L 57.983 172.074 L 57.983 172.074 Q 53.574 172.074 51.119 169.763 L 51.119 169.763 L 51.119 169.763 Q 48.663 167.45 48.663 163.183 L 48.663 163.183 L 48.663 158.915 L 48.663 158.915 Q 48.663 155.001 50.905 152.867 L 50.905 152.867 L 50.905 152.867 Q 53.145 150.731 57.199 150.731 L 57.199 150.731 L 73.7 150.731 L 73.7 146.394 L 73.7 146.394 Q 73.7 142.837 71.995 140.918 L 71.995 140.918 L 71.995 140.918 Q 70.289 138.998 66.09 138.998 L 66.09 138.998 L 66.09 138.998 Q 59.972 138.998 50.372 140.065 Z  M 51.58 159.129 L 51.58 159.129 L 51.58 162.969 L 51.58 162.969 Q 51.58 169.371 58.266 169.441 L 58.266 169.441 L 58.266 169.441 Q 61.822 169.512 66.234 167.628 L 66.234 167.628 L 66.234 167.628 Q 70.643 165.741 73.7 162.898 L 73.7 162.898 L 73.7 153.01 L 57.484 153.224 L 57.484 153.224 Q 51.58 153.295 51.58 159.129 Z  M 102.154 121.071 L 102.013 123.206 L 94.329 123.206 L 94.329 123.206 Q 90.346 123.206 88.676 124.842 L 88.676 124.842 L 88.676 124.842 Q 87.005 126.477 87.005 130.532 L 87.005 130.532 L 87.005 137.291 L 99.236 137.291 L 99.236 139.711 L 87.005 139.711 L 87.005 171.575 L 84.157 171.575 L 84.157 139.711 L 77.97 139.711 L 77.97 137.647 L 84.157 137.363 L 84.157 130.392 L 84.157 130.392 Q 84.157 125.483 86.328 123.099 L 86.328 123.099 L 86.328 123.099 Q 88.495 120.718 93.406 120.718 L 93.406 120.718 L 93.406 120.718 Q 99.026 120.718 102.154 121.071 L 102.154 121.071 Z " fill-rule="evenodd" fill="rgb(73,101,115)"/><path d=" M 102.904 141.882 L 102.904 141.882 L 102.553 138.148 L 102.553 138.148 Q 107.688 137.289 112.423 137.289 L 112.423 137.289 L 112.423 137.289 Q 118.156 137.289 120.649 138.965 L 120.649 138.965 L 120.649 138.965 Q 123.14 140.638 123.14 144.943 L 123.14 144.943 L 123.14 144.943 Q 123.14 152.356 118.104 153.265 L 118.104 153.265 L 118.104 153.457 L 118.104 153.457 Q 121.294 153.985 122.616 156.016 L 122.616 156.016 L 122.616 156.016 Q 123.938 158.051 124.038 161.731 L 124.038 161.731 L 124.038 161.731 Q 124.137 166.849 121.593 169.194 L 121.593 169.194 L 121.593 169.194 Q 119.054 171.539 113.02 171.539 L 113.02 171.539 L 113.02 171.539 Q 108.286 171.539 102.007 170.678 L 102.007 170.678 L 102.305 166.801 L 102.305 166.801 Q 108.136 167.281 111.775 167.281 L 111.775 167.281 L 111.775 167.281 Q 115.811 167.281 117.459 165.941 L 117.459 165.941 L 117.459 165.941 Q 119.102 164.604 119.102 161.207 L 119.102 161.207 L 119.102 161.207 Q 119.102 158.291 117.757 156.876 L 117.757 156.876 L 117.757 156.876 Q 116.41 155.466 112.621 155.466 L 112.621 155.466 L 106.292 155.466 L 106.292 151.736 L 112.621 151.736 L 112.621 151.736 Q 116.162 151.689 117.258 150.252 L 117.258 150.252 L 117.258 150.252 Q 118.355 148.816 118.355 146.091 L 118.355 146.091 L 118.355 146.091 Q 118.304 143.174 116.959 142.336 L 116.959 142.336 L 116.959 142.336 Q 115.613 141.498 111.676 141.498 L 111.676 141.498 L 111.676 141.498 Q 107.589 141.498 102.904 141.882 Z  M 126.43 170.918 L 126.43 170.918 L 126.43 137.913 L 126.43 137.913 Q 132.959 137.481 138.84 137.481 L 138.84 137.481 L 138.84 137.481 Q 146.417 137.481 149.433 141.166 L 149.433 141.166 L 149.433 141.166 Q 152.447 144.847 152.447 154.414 L 152.447 154.414 L 152.447 154.414 Q 152.447 163.98 149.433 167.664 L 149.433 167.664 L 149.433 167.664 Q 146.417 171.347 138.84 171.347 L 138.84 171.347 L 138.84 171.347 Q 132.959 171.347 126.43 170.918 Z  M 131.412 141.69 L 131.412 141.69 L 131.412 167.041 L 131.412 167.041 Q 134.602 167.185 138.84 167.185 L 138.84 167.185 L 138.84 167.185 Q 143.527 167.185 145.347 164.412 L 145.347 164.412 L 145.347 164.412 Q 147.162 161.635 147.162 154.414 L 147.162 154.414 L 147.162 154.414 Q 147.162 147.192 145.347 144.419 L 145.347 144.419 L 145.347 144.419 Q 143.527 141.642 138.84 141.642 L 138.84 141.642 L 138.84 141.642 Q 137.346 141.642 134.878 141.668 L 134.878 141.668 L 134.878 141.668 Q 132.409 141.69 131.412 141.69 Z " fill-rule="evenodd" fill="rgb(73,101,115)"/></g></g></g><g id="Logo"><path d=" M 42.545 7.572 L 117.455 7.572 C 124.716 7.572 130.615 13.472 130.615 20.733 L 130.615 95.644 C 130.615 102.905 124.716 108.805 117.455 108.805 L 42.545 108.805 C 35.278 108.805 29.385 102.905 29.385 95.644 L 29.385 20.733 C 29.385 13.472 35.278 7.572 42.545 7.572 Z " fill="rgb(73,101,115)"/><path d=" M 90.494 33.257 C 90.46 32.048 89.324 30.676 88.183 31.188 L 52.206 47.295 C 51.065 47.801 50.301 48.402 50.03 49.589 L 43.479 78.413 C 43.209 79.6 44.546 80.544 45.789 80.481 L 90.494 33.257 Z " fill="rgb(255,255,255)"/><path d=" M 111.855 21.745 C 114.059 21.324 116.983 22.122 116.5 23.657 L 101.326 72.18 C 100.848 73.716 100.061 74.847 98.02 75.629 L 48.45 94.502 C 46.408 95.279 44.176 94.07 43.811 92.584 L 111.855 21.745 Z " fill="rgb(255,255,255)"/></g></g></g></svg>