<?xml version="1.0" standalone="no"?><!-- Generator: Gravit.io --><svg xmlns="http://www.w3.org/2000/svg" xmlns:xlink="http://www.w3.org/1999/xlink" style="isolation:isolate" viewBox="0 0 512 512" width="512" height="512"><defs><clipPath id="_clipPath_Go5hostKz0JWgzBAQ7Tm810AuhToD5cy"><rect width="512" height="512"/></clipPath></defs><g clip-path="url(#_clipPath_Go5hostKz0JWgzBAQ7Tm810AuhToD5cy)"><clipPath id="_clipPath_ERp6DAEvCTTTWdfOojWXoeyDJDQgba0i"><rect x="0" y="0" width="512" height="512" transform="matrix(1,0,0,1,0,0)" fill="rgb(255,255,255)"/></clipPath><g clip-path="url(#_clipPath_ERp6DAEvCTTTWdfOojWXoeyDJDQgba0i)"><g id="Group"><g id="Logo"><path d=" M 166.042 126.886 L 150.096 127.308 C 149.248 96.688 161.244 67.054 183.398 45.746 C 203.436 27.826 229.4 18.09 256.352 18.372 C 283.022 18.09 308.986 27.826 328.884 45.606 C 350.756 67.054 362.75 96.688 361.762 127.308 L 345.816 126.886 C 346.664 100.78 336.504 75.522 317.876 57.318 C 300.944 42.218 278.93 34.034 256.352 34.316 C 233.492 34.034 211.338 42.36 194.264 57.458 C 175.636 75.662 165.336 100.78 166.042 126.886 Z " fill="rgb(55,66,96)"/><path d=" M 465.842 141.952 L 481.344 465.444 C 482.088 481.002 470.048 493.632 454.472 493.632 L 57.526 493.632 C 41.95 493.632 29.906 481 30.646 465.444 L 46.026 141.952 C 46.766 126.394 60.014 113.762 75.588 113.762 L 436.268 113.762 C 451.844 113.762 465.096 126.394 465.842 141.952 Z " fill="rgb(255,82,82)"/><path d=" M 165.382 331.47 L 165.382 331.47 L 165.382 331.47 Z  M 165.382 331.47 L 165.382 331.328 L 165.382 331.47 Z  M 165.382 331.47 L 163.688 338.808 L 160.866 345.58 L 157.48 351.366 L 149.86 361.526 L 140.828 371.262 L 130.668 379.588 L 117.828 387.914 L 111.902 390.312 L 106.116 391.018 L 100.472 390.312 L 94.686 388.338 L 90.734 385.232 L 89.182 382.552 L 88.9 380.012 L 88.9 379.166 L 89.464 376.342 L 91.44 373.802 L 93.838 372.11 L 95.392 371.968 L 96.378 371.968 L 100.754 373.802 L 103.716 375.356 L 104.14 375.496 L 106.398 375.638 L 107.386 375.638 L 107.95 375.638 L 112.888 374.086 L 113.594 373.802 L 122.484 367.736 L 131.516 359.832 L 139.982 351.226 L 145.626 343.322 L 145.626 343.04 L 150.142 334.01 L 151.554 325.402 L 151.554 324.978 L 150.424 317.924 C 150.424 317.782 150.424 317.782 150.284 317.64 C 149.436 315.242 147.884 312.984 146.05 311.15 C 145.908 311.15 145.908 311.15 145.908 311.008 L 139.982 306.634 L 131.374 301.978 L 112.324 292.946 L 104.14 288.43 L 99.484 284.198 L 96.52 278.976 L 95.532 273.896 L 96.52 269.098 L 99.766 262.608 L 104.986 256.964 L 113.736 250.33 L 125.73 243.134 L 140.406 236.36 L 156.492 231.14 L 164.818 229.446 L 172.578 228.74 L 173.848 228.74 L 177.236 229.024 L 180.764 230.01 L 181.186 230.152 L 184.574 231.846 L 186.69 233.962 L 188.524 236.784 L 188.948 239.184 L 188.524 241.724 L 187.536 243.84 L 183.726 246.944 L 182.456 247.368 L 179.776 246.804 L 172.296 243.134 L 171.168 242.852 L 166.934 243.134 L 160.302 244.546 L 160.02 244.828 L 147.744 248.356 L 134.338 254.282 L 123.19 260.632 L 122.908 260.914 L 116.416 266.558 L 114.582 271.498 C 114.44 271.638 114.44 271.78 114.44 271.92 C 114.582 273.756 115.288 275.59 116.416 276.86 C 116.558 277 116.558 277 116.558 277.142 L 122.484 281.658 L 138.712 289.56 L 146.05 293.652 L 155.364 299.86 L 160.16 305.082 L 163.406 311.15 L 165.382 318.064 L 165.382 318.346 L 165.946 324.414 L 165.382 331.47 Z " fill-rule="evenodd" fill="rgb(255,255,255)"/><path d=" M 264.326 334.758 Q 264.526 337.142 262.736 339.528 Q 261.148 341.91 257.174 342.308 Q 254.392 342.706 249.424 344.296 Q 244.656 345.686 239.092 347.674 Q 233.726 349.66 227.964 351.448 Q 222.4 353.436 218.226 354.43 Q 205.708 357.41 198.556 354.23 Q 191.6 351.25 188.422 339.726 Q 187.43 335.95 187.23 330.982 Q 187.23 325.816 187.628 322.042 Q 188.024 316.874 189.018 311.908 Q 190.21 306.938 191.6 302.966 Q 190.41 302.568 190.41 301.376 Q 190.41 300.184 190.808 298.992 Q 191.6 297.204 193.19 294.62 Q 194.78 291.838 196.37 290.25 Q 198.356 288.66 200.742 288.46 Q 203.326 288.262 205.51 289.056 Q 208.292 290.05 209.684 292.236 Q 211.272 294.222 209.882 296.806 Q 207.696 301.178 205.312 308.33 Q 203.126 315.484 202.728 322.042 Q 202.53 326.014 202.728 329.194 Q 202.928 332.372 203.524 334.56 Q 204.516 338.534 206.902 339.924 Q 209.484 341.118 214.85 340.122 Q 218.226 339.528 223.592 337.54 Q 228.958 335.552 234.72 333.368 Q 240.68 330.982 246.244 329.194 Q 252.006 327.406 255.98 327.406 Q 259.954 327.206 261.942 329.592 Q 264.128 331.976 264.326 334.758 L 264.326 334.758 L 264.326 334.758 Z  M 225.778 245.74 Q 228.162 247.33 229.354 249.912 Q 230.548 252.296 230.548 255.08 Q 230.548 257.662 229.354 260.442 Q 228.162 263.026 225.58 264.816 Q 222.202 267.2 217.83 267 Q 213.458 266.802 209.882 263.424 Q 206.504 259.848 206.504 254.682 Q 206.704 249.316 211.67 245.74 Q 214.65 243.554 218.624 243.554 Q 222.6 243.554 225.778 245.74 L 225.778 245.74 L 225.778 245.74 Z " fill="rgb(255,255,255)"/><path d=" M 330.34 230.836 Q 329.544 233.62 327.358 235.208 Q 325.37 236.798 322.986 236.798 Q 320.404 237.194 318.218 235.804 Q 316.032 234.414 315.636 231.632 Q 315.238 230.638 315.238 229.844 Q 315.238 229.048 314.84 227.658 Q 314.244 225.472 312.456 224.278 Q 310.866 222.89 309.078 223.088 Q 305.7 223.286 301.328 225.87 Q 297.156 228.454 293.382 232.028 Q 290.994 234.214 288.412 237.99 Q 285.83 241.766 284.04 245.342 C 279.434 249.346 277.328 254.99 277.682 262.232 Q 275.298 271.372 273.708 281.506 Q 281.06 280.712 290.002 279.718 Q 299.142 278.724 308.084 277.73 Q 312.058 277.134 314.046 279.32 Q 316.232 281.506 316.232 284.288 Q 316.232 286.872 314.64 289.254 Q 313.052 291.64 309.474 292.038 Q 300.334 293.626 290.202 294.818 Q 280.266 295.812 271.722 296.806 Q 270.53 309.326 270.33 322.438 Q 270.33 335.354 270.928 347.078 Q 271.722 358.602 272.914 367.742 Q 274.306 376.882 276.094 381.652 Q 276.888 383.838 278.278 385.228 Q 279.868 386.618 281.06 388.606 Q 284.04 393.972 280.068 397.548 Q 277.682 399.734 274.902 399.734 Q 272.318 399.932 269.934 398.74 Q 263.774 395.362 261.19 387.414 Q 258.608 378.472 257.218 366.948 Q 255.826 355.424 255.428 343.302 Q 255.032 331.182 255.23 319.458 Q 255.428 307.536 256.222 297.998 Q 253.242 298.396 250.46 298.792 Q 247.876 298.992 244.896 298.992 Q 241.32 299.19 239.334 297.204 Q 237.544 295.018 237.544 292.236 Q 237.346 289.652 239.136 287.268 Q 240.922 284.884 244.698 284.486 Q 247.48 284.088 250.858 283.892 Q 254.434 283.692 257.614 283.294 Q 259.202 271.372 262.382 260.046 Q 265.56 248.522 270.132 238.984 Q 275.496 228.65 282.054 221.696 Q 284.04 219.71 287.022 217.326 Q 290.202 214.742 293.976 212.754 Q 297.95 210.57 302.122 209.178 Q 306.494 207.588 311.066 207.588 Q 315.436 207.588 318.814 209.178 Q 322.39 210.57 324.776 212.954 Q 327.358 215.338 328.75 218.318 Q 330.14 221.298 330.34 224.278 Q 330.934 227.658 330.34 230.836 L 330.34 230.836 L 330.34 230.836 Z " fill="rgb(255,255,255)"/><path d=" M 388.454 262.628 Q 387.262 264.02 385.276 264.616 Q 383.288 265.212 381.102 263.622 Q 375.342 259.25 368.982 254.482 Q 362.822 249.712 357.258 245.144 Q 354.874 243.354 355.074 241.17 Q 355.27 238.984 356.662 237.394 Q 357.854 235.804 360.04 235.208 Q 362.224 234.612 364.214 236.202 Q 370.372 241.17 376.134 245.74 Q 382.096 250.31 387.66 254.88 Q 390.044 256.47 389.846 258.854 Q 389.646 261.04 388.454 262.628 Z  M 431.176 331.182 Q 433.162 333.764 432.568 337.142 Q 432.17 340.52 428.99 342.508 Q 422.234 346.282 413.492 349.264 Q 404.946 352.444 397.596 353.238 Q 388.852 354.032 384.082 352.244 Q 379.512 350.456 376.134 345.288 Q 374.744 343.5 373.552 339.924 Q 372.558 336.348 372.558 333.566 Q 372.36 331.976 370.97 331.778 Q 369.776 331.38 368.186 332.572 Q 366 333.964 362.822 336.546 Q 359.842 338.93 356.264 341.91 Q 352.886 344.892 349.31 348.072 Q 345.734 351.25 342.554 353.834 Q 335.004 359.596 328.446 359.794 Q 321.89 360.192 317.716 356.416 Q 312.55 351.846 312.55 342.706 Q 312.748 338.334 313.94 334.162 Q 315.134 329.79 317.12 325.816 Q 320.102 319.854 324.472 314.094 Q 328.844 308.33 333.612 303.364 Q 338.58 298.198 343.548 294.222 Q 348.516 290.05 352.688 287.268 Q 356.264 284.884 360.834 282.3 Q 365.406 279.518 370.572 278.326 Q 375.936 276.936 381.7 277.73 Q 387.462 278.524 393.224 283.294 Q 395.806 285.48 396.006 288.062 Q 396.204 290.646 395.012 292.832 Q 393.422 295.614 389.846 296.608 Q 386.468 297.402 383.288 295.414 Q 378.718 291.838 373.154 292.832 Q 367.79 293.626 360.436 298.594 Q 356.862 300.978 352.29 304.952 Q 347.918 308.728 343.746 313.298 Q 339.574 317.868 335.798 322.836 Q 332.222 327.604 330.036 332.176 Q 328.844 334.56 328.446 337.938 Q 328.05 341.314 329.64 342.508 Q 331.824 344.296 335.998 340.72 Q 338.978 338.136 343.348 334.362 Q 347.918 330.584 352.688 326.81 Q 357.456 322.836 362.028 319.26 Q 366.796 315.684 370.372 313.496 Q 373.352 311.708 376.334 311.114 Q 379.512 310.318 381.898 310.914 Q 384.282 311.51 385.672 313.496 Q 387.064 315.484 387.064 318.862 Q 386.866 322.836 387.064 326.412 Q 387.462 329.79 388.454 332.372 Q 389.646 335.75 391.634 336.944 Q 393.82 338.136 397.198 337.938 Q 399.78 337.54 403.158 336.744 Q 406.536 335.75 409.914 334.56 Q 413.292 333.368 416.472 332.176 Q 419.85 330.784 422.234 329.592 Q 425.214 328.202 427.4 328.798 Q 429.586 329.392 431.176 331.182 L 431.176 331.182 L 431.176 331.182 Z " fill="rgb(255,255,255)"/></g></g></g></g></svg>