<?xml version="1.0" standalone="no"?><!-- Generator: Gravit.io --><svg xmlns="http://www.w3.org/2000/svg" xmlns:xlink="http://www.w3.org/1999/xlink" style="isolation:isolate" viewBox="0 0 256 256" width="256" height="256"><defs><clipPath id="_clipPath_uQwkLCjXVmyZUvglgcWxJrItWVKdhOmt"><rect width="256" height="256"/></clipPath></defs><g clip-path="url(#_clipPath_uQwkLCjXVmyZUvglgcWxJrItWVKdhOmt)"><clipPath id="_clipPath_tAlJ6OuVPWJnFBZQQeHnRgUpsk4zy69X"><rect x="0" y="0" width="256" height="256" transform="matrix(1,0,0,1,0,0)" fill="rgb(255,255,255)"/></clipPath><g clip-path="url(#_clipPath_tAlJ6OuVPWJnFBZQQeHnRgUpsk4zy69X)"><g id="Group"><clipPath id="_clipPath_7KWpiXJQEPclqkyLueYRW5iE6yOMWvgI"><rect x="0" y="0" width="256" height="256" transform="matrix(1,0,0,1,0,0)" fill="rgb(255,255,255)"/></clipPath><g clip-path="url(#_clipPath_7KWpiXJQEPclqkyLueYRW5iE6yOMWvgI)"><g id="Group"><g id="Group"><clipPath id="_clipPath_tYFm6lhQXO3cL38zZMQrwuh2dnKYewgh"><rect x="0" y="0" width="256" height="256" transform="matrix(1,0,0,1,0,0)" fill="rgb(255,255,255)"/></clipPath><g clip-path="url(#_clipPath_tYFm6lhQXO3cL38zZMQrwuh2dnKYewgh)"><g id="Group"><g id="Group"><g id="Group"><g id="Group"><g id="Group"><g id="g872"><g id="g1113"><g id="flowRoot889"><g id="Group"><path d=" M 83.021 63.443 L 75.048 63.654 C 74.624 48.344 80.622 33.527 91.699 22.873 C 101.718 13.913 114.7 9.045 128.176 9.186 C 141.511 9.045 154.493 13.913 164.442 22.803 C 175.378 33.527 181.375 48.344 180.881 63.654 L 172.908 63.443 C 173.332 50.39 168.252 37.761 158.938 28.659 C 150.472 21.109 139.465 17.017 128.176 17.158 C 116.746 17.017 105.669 21.18 97.132 28.729 C 87.818 37.831 82.668 50.39 83.021 63.443 Z " fill="rgb(2,128,144)"/><path d=" M 232.921 70.976 L 240.672 232.722 C 241.044 240.501 235.024 246.816 227.236 246.816 L 28.763 246.816 C 20.975 246.816 14.953 240.5 15.323 232.722 L 23.013 70.976 C 23.383 63.197 30.007 56.881 37.794 56.881 L 218.134 56.881 C 225.922 56.881 232.548 63.197 232.921 70.976 Z " fill="rgb(250,92,92)"/><path d=" M 82.691 165.735 L 82.691 165.735 L 82.691 165.735 Z  M 82.691 165.735 L 82.691 165.664 L 82.691 165.735 Z  M 82.691 165.735 L 81.844 169.404 L 80.433 172.79 L 78.74 175.683 L 74.93 180.763 L 70.414 185.631 L 65.334 189.794 L 58.914 193.957 L 55.951 195.156 L 53.058 195.509 L 50.236 195.156 L 47.343 194.169 L 45.367 192.616 L 44.591 191.276 L 44.45 190.006 L 44.45 189.583 L 44.732 188.171 L 45.72 186.901 L 46.919 186.055 L 47.696 185.984 L 48.189 185.984 L 50.377 186.901 L 51.858 187.678 L 52.07 187.748 L 53.199 187.819 L 53.693 187.819 L 53.975 187.819 L 56.444 187.043 L 56.797 186.901 L 61.242 183.868 L 65.758 179.916 L 69.991 175.613 L 72.813 171.661 L 72.813 171.52 L 75.071 167.005 L 75.777 162.701 L 75.777 162.489 L 75.212 158.962 C 75.212 158.891 75.212 158.891 75.142 158.82 C 74.718 157.621 73.942 156.492 73.025 155.575 C 72.954 155.575 72.954 155.575 72.954 155.504 L 69.991 153.317 L 65.687 150.989 L 56.162 146.473 L 52.07 144.215 L 49.742 142.099 L 48.26 139.488 L 47.766 136.948 L 48.26 134.549 L 49.883 131.304 L 52.493 128.482 L 56.868 125.165 L 62.865 121.567 L 70.203 118.18 L 78.246 115.57 L 82.409 114.723 L 86.289 114.37 L 86.924 114.37 L 88.618 114.512 L 90.382 115.005 L 90.593 115.076 L 92.287 115.923 L 93.345 116.981 L 94.262 118.392 L 94.474 119.592 L 94.262 120.862 L 93.768 121.92 L 91.863 123.472 L 91.228 123.684 L 89.888 123.402 L 86.148 121.567 L 85.584 121.426 L 83.467 121.567 L 80.151 122.273 L 80.01 122.414 L 73.872 124.178 L 67.169 127.141 L 61.595 130.316 L 61.454 130.457 L 58.208 133.279 L 57.291 135.749 C 57.22 135.819 57.22 135.89 57.22 135.96 C 57.291 136.878 57.644 137.795 58.208 138.43 C 58.279 138.5 58.279 138.5 58.279 138.571 L 61.242 140.829 L 69.356 144.78 L 73.025 146.826 L 77.682 149.93 L 80.08 152.541 L 81.703 155.575 L 82.691 159.032 L 82.691 159.173 L 82.973 162.207 L 82.691 165.735 Z " fill-rule="evenodd" fill="rgb(255,255,255)"/><path d=" M 132.163 167.379 Q 132.263 168.571 131.368 169.764 Q 130.574 170.955 128.587 171.154 Q 127.196 171.353 124.712 172.148 Q 122.328 172.843 119.546 173.837 Q 116.863 174.83 113.982 175.724 Q 111.2 176.718 109.113 177.215 Q 102.854 178.705 99.278 177.115 Q 95.8 175.625 94.211 169.863 Q 93.715 167.975 93.615 165.491 Q 93.615 162.908 93.814 161.021 Q 94.012 158.437 94.509 155.954 Q 95.105 153.469 95.8 151.483 Q 95.205 151.284 95.205 150.688 Q 95.205 150.092 95.404 149.496 Q 95.8 148.602 96.595 147.31 Q 97.39 145.919 98.185 145.125 Q 99.178 144.33 100.371 144.23 Q 101.663 144.131 102.755 144.528 Q 104.146 145.025 104.842 146.118 Q 105.636 147.111 104.941 148.403 Q 103.848 150.589 102.656 154.165 Q 101.563 157.742 101.364 161.021 Q 101.265 163.007 101.364 164.597 Q 101.464 166.186 101.762 167.28 Q 102.258 169.267 103.451 169.962 Q 104.742 170.559 107.425 170.061 Q 109.113 169.764 111.796 168.77 Q 114.479 167.776 117.36 166.684 Q 120.34 165.491 123.122 164.597 Q 126.003 163.703 127.99 163.703 Q 129.977 163.603 130.971 164.796 Q 132.064 165.988 132.163 167.379 L 132.163 167.379 L 132.163 167.379 Z  M 112.889 122.87 Q 114.081 123.665 114.677 124.956 Q 115.274 126.148 115.274 127.54 Q 115.274 128.831 114.677 130.221 Q 114.081 131.513 112.79 132.408 Q 111.101 133.6 108.915 133.5 Q 106.729 133.401 104.941 131.712 Q 103.252 129.924 103.252 127.341 Q 103.352 124.658 105.835 122.87 Q 107.325 121.777 109.312 121.777 Q 111.3 121.777 112.889 122.87 L 112.889 122.87 L 112.889 122.87 Z " fill="rgb(255,255,255)"/><path d=" M 165.17 115.418 Q 164.772 116.81 163.679 117.604 Q 162.685 118.399 161.493 118.399 Q 160.202 118.597 159.109 117.902 Q 158.016 117.207 157.818 115.816 Q 157.619 115.319 157.619 114.922 Q 157.619 114.524 157.42 113.829 Q 157.122 112.736 156.228 112.139 Q 155.433 111.445 154.539 111.544 Q 152.85 111.643 150.664 112.935 Q 148.578 114.227 146.691 116.014 Q 145.497 117.107 144.206 118.995 Q 142.915 120.883 142.02 122.671 C 139.717 124.673 138.664 127.495 138.841 131.116 Q 137.649 135.686 136.854 140.753 Q 140.53 140.356 145.001 139.859 Q 149.571 139.362 154.042 138.865 Q 156.029 138.567 157.023 139.66 Q 158.116 140.753 158.116 142.144 Q 158.116 143.436 157.32 144.627 Q 156.526 145.82 154.737 146.019 Q 150.167 146.813 145.101 147.409 Q 140.133 147.906 135.861 148.403 Q 135.265 154.663 135.165 161.219 Q 135.165 167.677 135.464 173.539 Q 135.861 179.301 136.457 183.871 Q 137.153 188.441 138.047 190.826 Q 138.444 191.919 139.139 192.614 Q 139.934 193.309 140.53 194.303 Q 142.02 196.986 140.034 198.774 Q 138.841 199.867 137.451 199.867 Q 136.159 199.966 134.967 199.37 Q 131.887 197.681 130.595 193.707 Q 129.304 189.236 128.609 183.474 Q 127.913 177.712 127.714 171.651 Q 127.516 165.591 127.615 159.729 Q 127.714 153.768 128.111 148.999 Q 126.621 149.198 125.23 149.396 Q 123.938 149.496 122.448 149.496 Q 120.66 149.595 119.667 148.602 Q 118.772 147.509 118.772 146.118 Q 118.673 144.826 119.568 143.634 Q 120.461 142.442 122.349 142.243 Q 123.74 142.044 125.429 141.946 Q 127.217 141.846 128.807 141.647 Q 129.601 135.686 131.191 130.023 Q 132.78 124.261 135.066 119.492 Q 137.748 114.325 141.027 110.848 Q 142.02 109.855 143.511 108.663 Q 145.101 107.371 146.988 106.377 Q 148.975 105.285 151.061 104.589 Q 153.247 103.794 155.533 103.794 Q 157.718 103.794 159.407 104.589 Q 161.195 105.285 162.388 106.477 Q 163.679 107.669 164.375 109.159 Q 165.07 110.649 165.17 112.139 Q 165.467 113.829 165.17 115.418 L 165.17 115.418 L 165.17 115.418 Z " fill="rgb(255,255,255)"/><path d=" M 194.227 131.314 Q 193.631 132.01 192.638 132.308 Q 191.644 132.606 190.551 131.811 Q 187.671 129.625 184.491 127.241 Q 181.411 124.856 178.629 122.572 Q 177.437 121.677 177.537 120.585 Q 177.635 119.492 178.331 118.697 Q 178.927 117.902 180.02 117.604 Q 181.112 117.306 182.107 118.101 Q 185.186 120.585 188.067 122.87 Q 191.048 125.155 193.83 127.44 Q 195.022 128.235 194.923 129.427 Q 194.823 130.52 194.227 131.314 Z  M 215.588 165.591 Q 216.581 166.882 216.284 168.571 Q 216.085 170.26 214.495 171.254 Q 211.117 173.141 206.746 174.632 Q 202.473 176.222 198.798 176.619 Q 194.426 177.016 192.041 176.122 Q 189.756 175.228 188.067 172.644 Q 187.372 171.75 186.776 169.962 Q 186.279 168.174 186.279 166.783 Q 186.18 165.988 185.485 165.889 Q 184.888 165.69 184.093 166.286 Q 183 166.982 181.411 168.273 Q 179.921 169.465 178.132 170.955 Q 176.443 172.446 174.655 174.036 Q 172.867 175.625 171.277 176.917 Q 167.502 179.798 164.223 179.897 Q 160.945 180.096 158.858 178.208 Q 156.275 175.923 156.275 171.353 Q 156.374 169.167 156.97 167.081 Q 157.567 164.895 158.56 162.908 Q 160.051 159.927 162.236 157.047 Q 164.422 154.165 166.806 151.682 Q 169.29 149.099 171.774 147.111 Q 174.258 145.025 176.344 143.634 Q 178.132 142.442 180.417 141.15 Q 182.703 139.759 185.286 139.163 Q 187.968 138.468 190.85 138.865 Q 193.731 139.262 196.612 141.647 Q 197.903 142.74 198.003 144.031 Q 198.102 145.323 197.506 146.416 Q 196.711 147.807 194.923 148.304 Q 193.234 148.701 191.644 147.707 Q 189.359 145.919 186.577 146.416 Q 183.895 146.813 180.218 149.297 Q 178.431 150.489 176.145 152.476 Q 173.959 154.364 171.873 156.649 Q 169.787 158.934 167.899 161.418 Q 166.111 163.802 165.018 166.088 Q 164.422 167.28 164.223 168.969 Q 164.025 170.657 164.82 171.254 Q 165.912 172.148 167.999 170.36 Q 169.489 169.068 171.674 167.181 Q 173.959 165.292 176.344 163.405 Q 178.728 161.418 181.014 159.63 Q 183.398 157.842 185.186 156.748 Q 186.676 155.854 188.167 155.557 Q 189.756 155.159 190.949 155.457 Q 192.141 155.755 192.836 156.748 Q 193.532 157.742 193.532 159.431 Q 193.433 161.418 193.532 163.206 Q 193.731 164.895 194.227 166.186 Q 194.823 167.875 195.817 168.472 Q 196.91 169.068 198.599 168.969 Q 199.89 168.77 201.579 168.372 Q 203.268 167.875 204.957 167.28 Q 206.646 166.684 208.236 166.088 Q 209.925 165.392 211.117 164.796 Q 212.607 164.101 213.7 164.399 Q 214.793 164.696 215.588 165.591 L 215.588 165.591 L 215.588 165.591 Z " fill="rgb(255,255,255)"/></g></g></g></g></g></g></g></g></g></g></g></g></g></g></g></g></svg>